<svg width="31" height="21" viewBox="0 0 31 21" fill="none" xmlns="http://www.w3.org/2000/svg">
<path d="M25.83 4.39285C23.0464 1.5601 19.3452 0 15.4086 0C11.472 0 7.77083 1.5601 4.9872 4.39285C2.20357 7.22583 0.670532 10.9921 0.670532 14.9982C0.670532 16.1003 0.788597 17.2 1.02158 18.2667C1.15606 18.8818 1.3308 19.4942 1.54084 20.087C1.6688 20.4483 2.00365 20.6733 2.36054 20.6733C2.45882 20.6733 2.55844 20.6561 2.65627 20.6204C3.10896 20.454 3.34352 19.946 3.18025 19.4853C2.99517 18.9631 2.84135 18.4236 2.72306 17.8817C2.58026 17.2274 2.48738 16.5589 2.44353 15.885H5.12281C5.60406 15.885 5.99424 15.4879 5.99424 14.9982C5.99424 14.5084 5.60406 14.1114 5.12281 14.1114H2.4433C2.55867 12.348 3.01496 10.6783 3.74584 9.16971L6.06508 10.5325C6.20226 10.6131 6.35203 10.6515 6.50001 10.6515C6.80113 10.6515 7.09415 10.4925 7.2554 10.208C7.49602 9.78373 7.35322 9.24134 6.93651 8.99647L4.61929 7.63502C5.56246 6.20835 6.77122 4.97826 8.17293 4.01844L9.51099 6.37655C9.67224 6.66125 9.96526 6.8203 10.2664 6.8203C10.4141 6.8203 10.5641 6.78185 10.7013 6.7013C11.1182 6.45642 11.2611 5.91404 11.0202 5.48974L9.68123 3.12958C11.1637 2.3858 12.8042 1.92146 14.537 1.80428V4.53085C14.537 5.02059 14.9271 5.41766 15.4084 5.41766C15.8896 5.41766 16.28 5.02059 16.28 4.53085V1.80428C18.0126 1.92169 19.6533 2.3858 21.1358 3.12958L19.7966 5.48997C19.5559 5.91404 19.6987 6.45642 20.1157 6.7013C20.2529 6.78185 20.4026 6.8203 20.5506 6.8203C20.8517 6.8203 21.1445 6.66125 21.306 6.37678L22.6438 4.01844C24.0458 4.97826 25.2545 6.20835 26.1977 7.63502L23.8805 8.99647C23.4635 9.24134 23.3207 9.78373 23.5614 10.208C23.7228 10.4925 24.0159 10.6515 24.317 10.6515C24.4647 10.6515 24.6147 10.6133 24.7519 10.5325L27.0712 9.16994C27.802 10.6783 28.2583 12.348 28.3737 14.1114H25.6942C25.2127 14.1114 24.8225 14.5084 24.8225 14.9982C24.8225 15.4879 25.2127 15.885 25.6942 15.885H28.3735C28.3319 16.523 28.2466 17.1565 28.1164 17.7767C28.0087 18.2888 27.8695 18.7997 27.7024 19.2947C27.5461 19.7581 27.7885 20.2625 28.2437 20.4215C28.6989 20.5804 29.1947 20.3339 29.351 19.8707C29.5406 19.3086 29.6987 18.7289 29.8208 18.1476C30.0369 17.1187 30.1465 16.0591 30.1465 14.9982C30.1467 10.9921 28.6136 7.22583 25.83 4.39285Z" fill="white"/>
<path d="M20.2978 8.75778L16.582 12.8323C16.2256 12.6256 15.8136 12.5069 15.3749 12.5069C14.0249 12.5069 12.9268 13.6246 12.9268 14.9982C12.9268 16.372 14.0249 17.4895 15.3749 17.4895C16.7246 17.4895 17.823 16.372 17.823 14.9982C17.823 14.7249 17.7787 14.462 17.6984 14.2157L21.5754 9.9643C21.9028 9.60523 21.8821 9.04408 21.5293 8.71086C21.1764 8.37765 20.6253 8.39871 20.2978 8.75778ZM15.3749 15.7159C14.986 15.7159 14.6696 15.3939 14.6696 14.9982C14.6696 14.6025 14.986 14.2807 15.3749 14.2807C15.7637 14.2807 16.0801 14.6025 16.0801 14.9982C16.0801 15.3939 15.7637 15.7159 15.3749 15.7159Z" fill="white"/>
</svg>
