<svg width="26" height="26" viewBox="0 0 26 26" fill="none" xmlns="http://www.w3.org/2000/svg">
<g clip-path="url(#clip0)">
<path d="M22.8618 20.691C22.7853 20.6414 22.2101 20.2384 21.6342 19.0194C20.5765 16.7809 20.3544 13.6275 20.3544 11.3763C20.3544 11.3665 20.3542 11.3568 20.3539 11.347C20.3424 8.3718 18.5608 5.80704 16.0114 4.65629V2.89636C16.0114 1.29929 14.7142 0 13.1198 0H12.8801C11.2857 0 9.98856 1.29929 9.98856 2.89636V4.65618C7.4306 5.81064 5.64549 8.3885 5.64549 11.3763C5.64549 13.6275 5.42348 16.7808 4.36575 19.0194C3.78984 20.2384 3.21464 20.6413 3.13817 20.691C2.81611 20.84 2.65732 21.1843 2.73141 21.5332C2.80621 21.8856 3.13558 22.1285 3.49526 22.1285H9.07851C9.10969 24.2685 10.8563 26 13 26C15.1437 26 16.8903 24.2685 16.9215 22.1285H22.5047C22.8644 22.1285 23.1938 21.8856 23.2686 21.5332C23.3426 21.1843 23.1838 20.84 22.8618 20.691ZM11.512 2.89636C11.512 2.14068 12.1258 1.52593 12.8802 1.52593H13.1198C13.8742 1.52593 14.488 2.14068 14.488 2.89636V4.16168C14.0072 4.0623 13.5095 4.00999 12.9998 4.00999C12.4902 4.00999 11.9927 4.06225 11.5121 4.16152V2.89636H11.512ZM13 24.4741C11.6963 24.4741 10.6329 23.4271 10.6019 22.1286H15.398C15.3671 23.4271 14.3037 24.4741 13 24.4741ZM16.0672 20.6026C16.067 20.6026 5.23122 20.6026 5.23122 20.6026C5.363 20.3972 5.49711 20.1647 5.63041 19.9019C6.65132 17.8888 7.16898 15.0203 7.16898 11.3763C7.16898 8.15587 9.78467 5.53592 12.9997 5.53592C16.2148 5.53592 18.8305 8.15588 18.8305 11.3788C18.8305 11.3882 18.8306 11.3975 18.831 11.4069C18.8339 15.0363 19.3515 17.8944 20.3696 19.9019C20.5029 20.1647 20.637 20.3972 20.7688 20.6026H16.0672Z" fill="#0077B6"/>
</g>
<defs>
<clipPath id="clip0">
<rect width="26" height="26" fill="white"/>
</clipPath>
</defs>
</svg>
